{"title":"Narcos S02E02 720p WEBRip HEVC 2CH x265","uid":15735105,"size":368994235,"categoryP":"video","categoryS":"hd___tv_shows","magnet":"?xt=urn:btih:1f741f87d8b556fa29b6fc078fd56a7da72f085d&amp;dn=Narcos+S02E02+720p+WEBRip+HEVC+2CH+x265&amp;tr=udp%3A%2F%2Ftracker.leechers-paradise.org%3A6969&amp;tr=udp%3A%2F%2Fzer0day.ch%3A1337&amp;tr=udp%3A%2F%2Fopen.demonii.com%3A1337&amp;tr=udp%3A%2F%2Ftracker.coppersurfer.tk%3A6969&amp;tr=udp%3A%2F%2Fexodus.desync.com%3A6969","seeders":3,"leechers":1,"uploader":"nayhtut","files":1,"time":1472829132,"description":"Source:  Narcos S02E02 720p WEBRip x264-SKGTV (1.69 GB)\r\n \r\n\r\n__--__--__--__--__--__--__--__--__--__--__--__--__--\r\n\r\n\r\nComplete name                            : Narcos.S02E02.720p.WEBRip.HEVC.2CH.x265.mkv\r\nFormat                                   : Matroska\r\nFormat version                           : Version 4 / Version 2\r\nFile size                                : 352 MiB\r\nDuration                                 : 46mn 30s\r\nOverall bit rate                         : 1 058 Kbps\r\nMovie name                               : narcos.s02e02.720p.skgtv\r\nWriting application                      : Lavf57.25.100\r\nWriting library                          : Lavf57.25.100\r\n\r\nVideo\r\n\r\nID                                       : 1\r\nFormat                                   : V_MPEGH/ISO/HEVC\r\nCodec ID                                 : V_MPEGH/ISO/HEVC\r\nDuration                                 : 46mn 30s\r\nBit rate                                 : 845 Kbps\r\nWidth                                    : 1 280 pixels\r\nHeight                                   : 720 pixels\r\nDisplay aspect ratio                     : 16:9\r\nFrame rate                               : 25.000 fps\r\nBits/(Pixel*Frame)                       : 0.037\r\nStream size                              : 281 MiB (80%)\r\nWriting library                          : Lavc57.48.101 libx265\r\nLanguage                                 : English\r\nDefault                                  : Yes\r\nForced                                   : No\r\nDURATION                                 : 00:46:30.131000000\r\nNUMBER_OF_FRAMES                         : 66895\r\nNUMBER_OF_BYTES                          : 1277133422\r\n_STATISTICS_WRITING_APP                  : mkvmerge v8.9.0 ('Father Daughter') 32bit\r\n_STATISTICS_WRITING_DATE_UTC             : 2016-09-02 10:47:26\r\n_STATISTICS_TAGS                         : BPS DURATION NUMBER_OF_FRAMES NUMBER_OF_BYTES\r\n\r\nAudio\r\n\r\nID                                       : 2\r\nFormat                                   : AC-3\r\nFormat/Info                              : Audio Coding 3\r\nMode extension                           : CM (complete main)\r\nFormat settings, Endianness              : Big\r\nCodec ID                                 : A_AC3\r\nDuration                                 : 46mn 30s\r\nBit rate mode                            : Constant\r\nBit rate                                 : 192 Kbps\r\nChannel(s)                               : 2 channels\r\nChannel positions                        : Front: L R\r\nSampling rate                            : 48.0 KHz\r\nBit depth                                : 16 bits\r\nCompression mode                         : Lossy\r\nStream size                              : 63.9 MiB (18%)\r\nWriting library                          : Lavc57.24.102 ac3\r\nLanguage                                 : English\r\nDefault                                  : Yes\r\nForced                                   : No\r\nDURATION                                 : 00:46:30.143000000\r\nNUMBER_OF_FRAMES                         : 87190\r\nNUMBER_OF_BYTES                          : 223206400\r\n_STATISTICS_WRITING_APP                  : mkvmerge v8.9.0 ('Father Daughter') 32bit\r\n_STATISTICS_WRITING_DATE_UTC             : 2016-09-02 10:47:26\r\n_STATISTICS_TAGS                         : BPS DURATION NUMBER_OF_FRAMES NUMBER_OF_BYTES\r\n\r\n__--__--__--__--__--__--__--__--__--__--__--__--__--\r\n\r\n\r\nIMDb: http://www.imdb.com/title/tt2654620","torrent":{"xt":"urn:btih:1f741f87d8b556fa29b6fc078fd56a7da72f085d","amp;dn":"Narcos+S02E02+720p+WEBRip+HEVC+2CH+x265","amp;tr":["udp%3A%2F%2Ftracker.leechers-paradise.org%3A6969","udp%3A%2F%2Fzer0day.ch%3A1337","udp%3A%2F%2Fopen.demonii.com%3A1337","udp%3A%2F%2Ftracker.coppersurfer.tk%3A6969","udp%3A%2F%2Fexodus.desync.com%3A6969"],"infoHash":"1f741f87d8b556fa29b6fc078fd56a7da72f085d","infoHashBuffer":{"type":"Buffer","data":[31,116,31,135,216,181,86,250,41,182,252,7,143,213,106,125,167,47,8,93]},"announce":[],"urlList":[]}}